<?xml version="1.0" standalone="no"?>
<!DOCTYPE svg PUBLIC "-//W3C//DTD SVG 20010904//EN"
 "http://www.w3.org/TR/2001/REC-SVG-20010904/DTD/svg10.dtd">
<svg version="1.0" xmlns="http://www.w3.org/2000/svg"
 width="300.000000pt" height="300.000000pt" viewBox="0 0 300.000000 300.000000"
 preserveAspectRatio="xMidYMid meet">
<metadata>
Created by potrace 1.11, written by Peter Selinger 2001-2013
</metadata>
<g transform="translate(0.000000,300.000000) scale(0.100000,-0.100000)"
fill="#000000" stroke="none">
<path d="M34 2966 l-34 -34 0 -1432 0 -1432 34 -34 34 -34 1432 0 1432 0 34
34 34 34 0 1432 0 1432 -34 34 -34 34 -1432 0 -1432 0 -34 -34z m1408 -473
c17 -15 18 -49 18 -666 0 -591 -2 -652 -17 -669 -15 -17 -47 -18 -601 -18
-531 0 -587 2 -604 17 -17 15 -18 49 -18 666 0 591 2 652 17 669 15 17 47 18
601 18 531 0 587 -2 604 -17z m1334 3 c18 -14 19 -33 19 -669 0 -540 -2 -657
-14 -670 -12 -15 -63 -17 -553 -17 -353 0 -546 4 -559 10 -18 10 -19 28 -19
670 0 585 2 660 16 674 14 14 78 16 553 16 448 0 540 -2 557 -14z m-500 -1590
c1 -1 -2 -29 -7 -64 -37 -264 -288 -467 -725 -587 -70 -19 -130 -33 -132 -30
-6 6 -72 288 -68 292 1 2 38 12 82 24 194 50 365 127 450 202 45 40 94 122 94
159 0 17 12 17 153 12 83 -4 153 -7 153 -8z"/>
</g>
</svg>
